<svg xmlns="http://www.w3.org/2000/svg" viewBox="22 20 66 64" role="img" aria-label="Regatta Timer burgee logo">
  <title>Regatta Timer</title>
  <!-- pennant: gold/green per johnhringiv.com burgee, flying right -->
  <path d="M28,26 L28,78 L82,52 Z" fill="#F5C518" stroke="#0B6B3A" stroke-width="5" stroke-linejoin="round"/>
  <!-- stopwatch from Bootstrap Icons (MIT): https://icons.getbootstrap.com/icons/stopwatch/ -->
  <g transform="translate(34.8,39.4) scale(1.4)" fill="#0B6B3A">
    <path d="M8.5 5.6a.5.5 0 1 0-1 0v2.9h-3a.5.5 0 0 0 0 1H8a.5.5 0 0 0 .5-.5z"/>
    <path d="M6.5 1A.5.5 0 0 1 7 .5h2a.5.5 0 0 1 0 1v.57c1.36.196 2.594.78 3.584 1.64l.012-.013.354-.354-.354-.353a.5.5 0 0 1 .707-.708l1.414 1.415a.5.5 0 1 1-.707.707l-.353-.354-.354.354-.013.012A7 7 0 1 1 7 2.071V1.5a.5.5 0 0 1-.5-.5M8 3a6 6 0 1 0 .001 12A6 6 0 0 0 8 3"/>
  </g>
</svg>
